<?xml version="1.0" encoding="utf-8"?>
<!-- Generator: Adobe Illustrator 22.0.0, SVG Export Plug-In . SVG Version: 6.00 Build 0)  -->
<svg version="1.1" id="katman_1" xmlns="http://www.w3.org/2000/svg" xmlns:xlink="http://www.w3.org/1999/xlink" x="0px" y="0px"
	 viewBox="0 0 253.3 38.8" style="enable-background:new 0 0 253.3 38.8;" xml:space="preserve">
<style type="text/css">
	.st0{fill:rgba(0,0,0,0.5);}
	.st1{fill-rule:evenodd;clip-rule:evenodd;fill:#6c757d;}
</style>
<g>
	<path class="st0" d="M86.8,7.9c-3.1,0-5.9,1.2-7.9,3.2V9.7c0-0.8-0.6-1.4-1.4-1.4h-1.3c-0.8,0-1.4,0.6-1.4,1.4v27.7
		c0,0.8,0.6,1.4,1.4,1.4h1.3c0.8,0,1.4-0.6,1.4-1.4v-7.9c2.1,2,4.9,3.1,7.9,3.1c6.6,0,11.8-5.4,11.8-12.4
		C98.5,13.3,93.4,7.9,86.8,7.9 M78.7,20.2c0-4.7,3.5-8.3,7.9-8.3c4.5,0,7.7,3.5,7.7,8.4c0,4.9-3.2,8.3-7.7,8.3
		C82.2,28.6,78.7,25,78.7,20.2"/>
	<path class="st0" d="M128.1,7.9c-3.1-0.1-5.7,1.3-7.6,3.3V9.7c0-0.8-0.6-1.4-1.4-1.4h-1.3c-0.8,0-1.4,0.6-1.4,1.4v21
		c0,0.8,0.6,1.4,1.4,1.4h1.3c0.8,0,1.4-0.6,1.4-1.4v-10c0-4.2,2.8-8.7,7.4-8.7h0.2c0.8,0,1.4-0.6,1.4-1.4V9.3
		C129.4,8.6,128.8,8,128.1,7.9"/>
	<path class="st0" d="M153.6,8c-2.7,0-5.2,0.6-8,2c-0.7,0.3-1,1.1-0.7,1.8l0.5,1.2c0.1,0.3,0.4,0.6,0.8,0.8c0.4,0.1,0.8,0.1,1.1-0.1
		c2.2-1.1,4.1-1.6,6.2-1.6c4,0,6,1.7,6.1,5.3c-2-0.5-4-0.7-6.1-0.7c-6.5,0-10.7,3.2-10.7,8.2c0,5.1,4.7,7.8,9.4,7.8
		c3.2,0,5.7-1,7.5-2.4v0.6c0,0.8,0.6,1.4,1.4,1.4h1.3c0.8,0,1.4-0.6,1.4-1.4V17.7c0-2.9-0.9-5.3-2.5-6.9C159.5,8.9,156.9,8,153.6,8
		 M152.3,28.7c-2.4,0-5.3-1-5.3-4c0-3,3.3-4.1,6.5-4.1c2.2,0,4.2,0.3,6.2,0.8V23C159.7,26.1,156.4,28.7,152.3,28.7"/>
	<path class="st0" d="M193.8,8.4h-6.3V2.7c0-0.8-0.6-1.4-1.4-1.4h-1.3c-0.8,0-1.4,0.6-1.4,1.4v5.7h-1.8c-0.8,0-1.4,0.6-1.4,1.4v1.2
		c0,0.8,0.6,1.4,1.4,1.4h1.8v13.1c0,4.4,2.7,7.1,7,7.1c1.4,0,2.7-0.3,3.9-0.8c0.5-0.2,0.8-0.7,0.8-1.2v-1.3c0-0.5-0.2-0.9-0.6-1.2
		c-0.4-0.3-0.9-0.3-1.3-0.1c-0.9,0.4-1.8,0.6-2.6,0.6c-2.1,0-3-1-3-3.3v-13h6.3c0.8,0,1.4-0.6,1.4-1.4V9.7
		C195.2,9,194.6,8.4,193.8,8.4"/>
	<path class="st0" d="M215.6,8.4h-1.4c-0.8,0-1.4,0.6-1.4,1.4v21c0,0.8,0.6,1.4,1.4,1.4h1.4c0.8,0,1.4-0.6,1.4-1.4v-21
		C217,9,216.4,8.4,215.6,8.4"/>
	<path class="st0" d="M215.8,0H214c-0.8,0-1.4,0.6-1.4,1.4v2.5c0,0.8,0.6,1.4,1.4,1.4h1.8c0.8,0,1.4-0.6,1.4-1.4V1.4
		C217.2,0.6,216.6,0,215.8,0"/>
	<path class="st0" d="M245,18.1c-3.6-1-5.4-1.8-5.4-3.3c0-1.6,1.8-2.8,4.4-2.8c2,0,4.2,0.7,5.9,2c0.3,0.2,0.7,0.3,1,0.2
		c0.4-0.1,0.7-0.3,0.9-0.6l0.8-1.1c0.4-0.6,0.3-1.5-0.4-1.9C249.8,8.9,246.7,8,244,8c-5,0-8.6,2.9-8.6,7c0,4.7,4.6,6,8.3,7.1
		c3.7,1,5.4,1.8,5.4,3.5c0,1.7-2,3-4.6,3c-2.4,0-4.9-0.9-7-2.6c-0.3-0.2-0.7-0.3-1-0.3c-0.4,0-0.7,0.2-0.9,0.5l-0.8,1
		c-0.4,0.6-0.4,1.4,0.2,1.9c2.6,2.1,6.1,3.4,9.4,3.4c5.1,0,8.9-3,8.9-7.2C253.3,20.3,248.3,18.9,245,18.1"/>
	<path class="st1" d="M44,0.7c-6,0-11.3,3.3-14,8.3c-2.7-4.9-8-8.3-14-8.3c-8.8,0-16,7.2-16,16c0,8.8,7.2,16,16,16
		c6,0,11.3-3.3,14-8.3c2.7,4.9,8,8.3,14,8.3c8.8,0,16-7.2,16-16C60,7.9,52.8,0.7,44,0.7"/>
</g>
</svg>
